<?xml version="1.0" standalone="no"?>
<!DOCTYPE svg PUBLIC "-//W3C//DTD SVG 20010904//EN"
 "http://www.w3.org/TR/2001/REC-SVG-20010904/DTD/svg10.dtd">
<svg version="1.0" xmlns="http://www.w3.org/2000/svg"
 width="600.000000pt" height="600.000000pt" viewBox="0 0 600.000000 600.000000"
 preserveAspectRatio="xMidYMid meet">
<metadata>
Created by potrace 1.14, written by Peter Selinger 2001-2017
</metadata>
<g transform="translate(0.000000,600.000000) scale(0.100000,-0.100000)"
fill="#000000" stroke="none">
<path d="M1805 5214 c-86 -19 -187 -78 -265 -154 -61 -59 -171 -266 -191 -360
-8 -37 -14 -121 -14 -195 0 -150 16 -219 77 -327 21 -37 38 -69 38 -72 0 -2
-24 -10 -52 -16 -125 -29 -216 -95 -303 -219 -30 -42 -72 -93 -94 -115 -39
-38 -49 -62 -66 -168 -3 -21 -10 -38 -16 -38 -19 0 -49 -88 -55 -162 -7 -74
-7 -74 35 -140 23 -36 50 -90 60 -120 10 -30 26 -69 36 -87 13 -26 97 -147
143 -206 4 -5 16 -31 25 -56 10 -26 34 -63 53 -83 19 -20 45 -57 58 -83 36
-73 66 -141 66 -150 0 -5 15 -25 33 -44 28 -31 39 -36 85 -38 36 -1 52 1 47 8
-3 6 -2 11 4 11 5 0 17 7 25 16 14 13 21 14 52 2 34 -12 38 -11 52 10 8 12 23
22 33 22 11 0 19 7 19 16 0 8 5 12 10 9 6 -3 13 1 16 9 3 9 13 16 21 16 11 0
12 8 7 38 -9 45 -8 101 1 110 4 4 82 7 173 7 136 0 173 -3 202 -17 19 -9 46
-18 60 -20 22 -3 25 -9 28 -45 3 -38 0 -44 -22 -55 -14 -6 -26 -17 -26 -23 0
-18 -42 -32 -141 -48 -129 -22 -156 -38 -175 -103 -8 -30 -17 -69 -19 -87 -3
-20 -15 -41 -34 -57 -23 -20 -32 -38 -38 -80 -9 -57 -6 -73 35 -163 12 -27 22
-51 22 -53 0 -2 13 -32 29 -66 17 -35 34 -83 40 -108 6 -25 40 -117 76 -205
37 -88 73 -178 80 -200 35 -107 78 -213 99 -245 13 -20 27 -51 31 -70 12 -53
98 -132 182 -164 53 -22 91 -29 173 -33 l105 -5 80 48 c52 31 115 82 179 147
54 54 102 95 106 90 3 -4 15 -28 25 -53 24 -58 76 -130 123 -171 30 -27 37
-40 38 -71 0 -21 -4 -38 -10 -38 -19 0 34 -31 62 -36 60 -10 117 -32 204 -80
38 -21 163 -51 266 -65 202 -27 570 22 646 86 35 29 115 90 162 124 58 41 110
109 124 161 8 30 27 60 56 90 41 43 43 47 29 67 -10 14 -13 35 -10 62 5 38 4
41 -20 41 -23 0 -25 4 -26 43 -1 48 -2 56 -25 157 -21 90 -60 180 -78 180 -7
0 -18 19 -25 43 -7 23 -24 61 -37 84 -27 47 -29 53 -13 53 6 0 68 21 138 46
137 49 142 53 260 184 l77 86 -3 94 c-2 52 -6 101 -8 109 -3 7 0 20 6 27 6 8
11 40 10 72 -5 145 -8 199 -15 227 -12 49 -58 179 -67 190 -5 5 -9 15 -9 22 0
7 -12 37 -26 66 -14 28 -36 81 -50 117 -13 36 -28 74 -34 85 -19 41 -78 193
-106 274 -36 102 -70 141 -126 141 -69 0 -109 -24 -162 -101 -77 -109 -139
-158 -241 -188 -22 -7 -47 -15 -55 -18 -8 -4 -18 -7 -22 -7 -3 -1 -10 -4 -14
-8 -13 -13 -138 -9 -188 6 -92 28 -272 154 -317 223 -14 21 -15 30 -7 41 30
35 168 85 283 102 44 7 116 21 160 33 44 11 112 23 150 26 48 4 69 10 67 19
-1 6 4 12 11 12 7 0 25 10 39 21 26 21 26 23 12 52 -13 24 -13 31 -3 38 10 6
9 10 -5 15 -18 7 -18 8 -1 20 22 16 13 30 -26 38 -26 5 -29 9 -23 28 4 13 6
30 5 38 -2 8 -4 36 -5 62 -1 29 -9 55 -20 67 -14 16 -17 31 -13 77 4 43 -1 74
-18 125 -13 37 -21 70 -17 73 3 3 0 6 -6 6 -7 0 -12 7 -12 15 0 8 -26 65 -57
127 -32 62 -71 142 -87 178 -126 277 -170 336 -297 404 -109 57 -173 61 -325
22 -34 -9 -137 -23 -230 -31 -176 -15 -254 -30 -345 -65 -135 -52 -191 -88
-275 -176 l-60 -64 -24 57 c-29 73 -116 208 -172 269 -49 54 -142 121 -211
154 -56 26 -136 32 -212 14z m94 -301 c3 -4 27 -18 54 -30 26 -13 47 -27 47
-33 0 -5 7 -10 15 -10 9 0 19 -8 22 -17 4 -10 21 -31 39 -48 45 -43 102 -134
136 -218 34 -83 78 -281 78 -349 0 -39 5 -53 33 -82 38 -41 97 -54 97 -21 0 9
11 21 25 27 14 6 25 16 25 21 0 5 7 15 16 21 13 10 16 34 15 136 0 91 3 126
13 134 7 6 32 35 55 65 61 79 124 123 236 167 45 17 149 33 286 44 69 5 159
17 200 27 228 53 330 -20 463 -332 48 -110 123 -248 138 -252 16 -5 36 -59 25
-69 -11 -11 -112 -33 -117 -25 -3 4 -48 -3 -100 -15 -52 -13 -116 -27 -142
-30 -27 -4 -48 -10 -48 -14 0 -3 -6 -7 -12 -8 -15 -1 -53 -10 -53 -12 0 -1 -7
-3 -16 -5 -9 -1 -34 -15 -57 -29 -23 -14 -45 -26 -50 -26 -19 0 -93 -96 -104
-134 -6 -23 -15 -45 -19 -51 -15 -21 -22 -84 -20 -183 1 -83 7 -116 27 -170
14 -37 28 -75 31 -84 3 -10 9 -18 14 -18 5 0 9 -7 9 -15 0 -9 11 -27 25 -41
14 -14 25 -29 25 -34 0 -5 11 -17 25 -28 14 -11 25 -23 25 -28 0 -12 132 -134
146 -134 7 0 19 -8 26 -17 24 -32 125 -84 220 -113 91 -28 338 -4 438 42 71
32 166 105 222 169 28 32 54 56 59 54 4 -3 11 -27 14 -53 4 -26 10 -56 15 -67
45 -107 80 -193 80 -198 0 -3 13 -34 29 -69 68 -148 112 -273 104 -294 -5 -13
-8 -13 -15 -2 -7 10 -11 10 -15 1 -2 -7 -13 -13 -23 -13 -11 0 -24 -8 -29 -17
-6 -10 -11 -14 -11 -10 0 11 -56 -27 -95 -65 -67 -64 -106 -98 -111 -98 -11 0
-55 -39 -53 -47 3 -12 -64 -49 -68 -37 -4 13 -73 -6 -73 -19 0 -5 -4 -5 -10
-2 -5 3 -36 1 -69 -5 -33 -6 -97 -12 -143 -14 -46 -2 -91 -5 -100 -5 -10 -1
-18 -6 -18 -12 0 -6 -7 -17 -15 -25 -8 -9 -15 -28 -15 -44 0 -16 -7 -35 -15
-44 -17 -17 -19 -33 -5 -38 6 -2 7 -14 1 -35 -10 -34 -4 -73 10 -73 5 0 14
-11 19 -25 5 -14 18 -28 27 -31 10 -4 37 -15 60 -26 24 -11 50 -21 58 -22 8
-1 21 -8 27 -14 7 -7 16 -12 21 -12 4 0 25 -16 45 -36 105 -102 179 -165 198
-170 27 -7 44 -43 44 -93 0 -34 -8 -46 -62 -102 -80 -81 -125 -119 -132 -112
-3 4 -6 1 -6 -5 0 -6 -6 -9 -13 -6 -7 2 -25 -6 -40 -20 -14 -13 -27 -20 -29
-15 -2 6 -13 1 -25 -10 -11 -11 -24 -17 -27 -14 -3 4 -6 1 -6 -6 0 -7 -4 -10
-9 -7 -4 3 -30 -5 -57 -18 -64 -30 -95 -36 -259 -52 -146 -14 -204 -10 -296
22 -61 21 -93 39 -121 68 -22 21 -37 41 -34 44 3 2 -3 15 -13 29 -11 13 -18
35 -16 48 1 14 -1 25 -6 25 -6 0 -16 21 -24 50 -1 3 -4 12 -8 20 -12 30 -47
189 -47 213 0 14 7 30 16 38 8 7 13 21 11 31 -3 10 -1 18 4 18 5 0 9 7 9 15 0
8 6 15 13 15 7 0 25 14 41 32 27 31 27 33 12 66 -13 26 -14 37 -5 48 6 8 9 23
6 33 -3 11 -1 21 5 23 15 5 -2 37 -25 45 -19 6 -70 6 -132 0 -11 -1 -30 -13
-42 -26 -13 -13 -23 -20 -23 -15 0 11 -41 -48 -67 -98 -11 -21 -37 -57 -58
-80 -21 -24 -51 -72 -67 -108 -16 -36 -36 -79 -43 -96 -8 -16 -26 -36 -40 -44
-14 -7 -25 -17 -25 -22 0 -5 -4 -6 -10 -3 -9 6 -151 -33 -160 -44 -3 -3 -25
-6 -50 -6 -37 0 -47 4 -57 25 -8 15 -13 19 -13 10 -1 -8 -6 -4 -11 9 -5 13 -7
26 -5 28 2 3 -3 13 -11 23 -25 29 -53 118 -40 124 7 2 5 5 -4 5 -20 1 -30 45
-15 62 8 9 7 10 -3 4 -11 -6 -13 -4 -8 9 4 9 3 15 -2 12 -12 -8 -33 71 -26 97
4 15 3 18 -3 9 -7 -11 -10 -11 -15 2 -4 9 -2 16 4 16 5 0 1 9 -9 20 -10 11
-25 40 -32 63 -7 23 -18 56 -25 72 -7 17 -15 39 -17 50 -1 11 -10 25 -18 32
-13 11 -13 12 0 13 12 0 11 3 -3 11 -9 6 -15 14 -12 20 4 5 2 9 -2 9 -5 0 -9
9 -10 19 -1 14 8 23 34 32 67 22 174 112 230 192 30 44 55 143 42 169 -5 9 -7
43 -6 75 5 80 -17 165 -58 226 -35 53 -89 117 -99 117 -6 0 -38 24 -65 50 -43
40 -159 115 -205 132 -28 10 -81 22 -119 25 -57 5 -71 3 -88 -13 -17 -16 -22
-16 -30 -4 -8 13 -10 13 -19 0 -8 -12 -10 -12 -10 -1 0 10 -6 9 -27 -5 -47
-30 -93 -81 -123 -135 l-28 -52 -28 44 c-15 24 -66 101 -112 171 -86 131 -116
180 -128 211 -3 9 -10 17 -15 17 -5 0 -9 7 -9 15 0 8 -4 15 -10 15 -5 0 -10 3
-9 8 2 15 -14 52 -22 52 -5 0 -9 6 -9 14 0 8 -6 21 -13 28 -7 7 -17 25 -24 39
-10 22 -6 31 33 85 68 92 80 103 130 126 39 17 59 19 113 14 36 -3 80 -9 96
-14 27 -7 53 -8 123 -3 29 1 126 92 158 147 22 38 23 43 9 71 -15 30 -11 62
17 119 8 17 6 28 -8 49 -13 20 -15 31 -7 44 23 37 25 76 4 96 -20 17 -24 17
-83 1 -35 -9 -73 -19 -86 -23 -17 -4 -31 4 -62 37 -22 23 -40 46 -40 50 0 4
-10 29 -22 56 -12 27 -23 51 -23 54 -17 70 -15 102 5 162 26 72 90 185 123
215 12 12 40 33 62 48 35 24 47 26 99 22 32 -3 62 -9 65 -14z m1508 -1295 c-3
-7 -5 -2 -5 12 0 14 2 19 5 13 2 -7 2 -19 0 -25z"/>
<path d="M2207 2009 c4 -13 8 -18 11 -10 2 7 -1 18 -6 23 -8 8 -9 4 -5 -13z"/>
<path d="M2371 1534 c0 -11 3 -14 6 -6 3 7 2 16 -1 19 -3 4 -6 -2 -5 -13z"/>
</g>
</svg>
